<svg id="Layer_1" data-name="Layer 1" xmlns="http://www.w3.org/2000/svg" viewBox="0 0 23.27 24.52"><defs><style>.cls-1{fill:#648e6b;}.cls-1,.cls-2{stroke:#212121;}.cls-1,.cls-2,.cls-3,.cls-4,.cls-5{stroke-miterlimit:10;}.cls-1,.cls-2,.cls-3{stroke-width:0.14px;}.cls-2{fill:#1e5b49;}.cls-3,.cls-4,.cls-5{fill:#4f2e65;stroke:#000;}.cls-4{stroke-width:0.16px;}.cls-5{stroke-width:0.15px;}</style></defs><title>justgrapevine</title><path class="cls-1" d="M5.51,5.57s1.2-4.5,4.5-4.5c.15,0,1,.43,1,.72A22.86,22.86,0,0,1,9.3,4.5L5.58,6.36Z"/><path class="cls-2" d="M3,4.5S4.72,1.22,6.44.79V1.93S8.53.07,10.3.07c.28,0-.14.86-.29,1,0,0-2.57.57-4.43,4.29s-1,3.29-1,3.29L3,7.94,2.72,5.79V4.36Z"/><path class="cls-1" d="M2.55,7.4s-.83-4.47-.4-5.33H3s-.29,4,.43,5.29S2.55,7.4,2.55,7.4Z"/><path class="cls-3" d="M12.87,8.22s-2.29-1.71-3.43-.43-2.29,5.72-.57,6.15,5-.86,5.15-3.29S12.87,8.22,12.87,8.22Z"/><path class="cls-3" d="M5.15,17.23c-1.14,1-.91,1.64-.43,3.14.68,2.14,3,4,5.15.43C11.44,18.23,6.29,16.23,5.15,17.23Z"/><path class="cls-3" d="M.84,12a3.44,3.44,0,0,0,.9,5.07c3.11,2.15,3.75-.38,4.1-1.17S6.29,11,.84,12Z"/><path class="cls-4" d="M12.55,13s-4.42,1-2.62,4.58,5.73,1.15,5.9,0S15.33,12.64,12.55,13Z"/><path class="cls-3" d="M10.16,13.65a3.93,3.93,0,0,0-4.58,0c-2.29,1.72.14,5.29.86,5.72s3.86,1,4.72,0S11.3,14.23,10.16,13.65Z"/><path class="cls-3" d="M8.87,20.78s.57,4.46,4.29,2.74S9.45,15.47,8.87,20.78Z"/><path class="cls-3" d="M14.44,18.37s-3.23.48-1.9,4.25,5.19.76,5.34-.67S17.59,18.52,14.44,18.37Z"/><path class="cls-3" d="M17.26,23.8s3.76,2.29,4.33-1.71-4-4.15-4.29-3.72S15.65,21.5,17.26,23.8Z"/><path class="cls-3" d="M13.73,14.94a2.66,2.66,0,0,1,3.72-.71c2.28,1.43,1.71,4,.85,4.57a3.15,3.15,0,0,1-4.57-.86C12.73,16.66,13.73,14.94,13.73,14.94Z"/><path class="cls-3" d="M18.39,15s3.2-2.1,4.49,1.19-1.72,4.14-2.29,4S16.32,19.29,18.39,15Z"/><path class="cls-3" d="M16.3,13.08s-1.14-3.43.86-4.14,3.72.28,4,2.86a2.77,2.77,0,0,1-2.57,3.28A2.77,2.77,0,0,1,16.3,13.08Z"/><path class="cls-3" d="M.61,12c-.46-.73-1.5-4.59,2.54-4.59,1.71,0,2.12.76,2,2.29C4.86,13.23,1.07,12.68.61,12Z"/><path class="cls-3" d="M10.3,9.51s-5-2.43-6.15,1.57c-.29,1-.57,3.86,2,4.43s4.72-1.57,4.86-2.86S11.16,10.37,10.3,9.51Z"/><path class="cls-3" d="M4.58,8.08c-.29-1,.43-3.43,4.29-3.86s2.71,3.43,2.29,3.86S5.83,12.47,4.58,8.08Z"/><path class="cls-3" d="M11.16,4.22s2.3-3.34,5.29,1.43c.71,1.14-1.43,2.86-3.58,2.86S10.58,4.79,11.16,4.22Z"/><path class="cls-3" d="M15.59,4.65c.28-.43,4.57-2.44,4.57,2.71,0,2.72-4.39,2.59-4.86-.71A2.69,2.69,0,0,1,15.59,4.65Z"/><path class="cls-5" d="M14.17,7.81C13.56,8,11,9,12.33,12.25s3.83,2.3,4.9.77S18.46,6.58,14.17,7.81Z"/></svg>